<svg width="512" height="512" viewBox="0 0 52 52" xmlns="http://www.w3.org/2000/svg">
  <defs>
    <linearGradient id="hbg" x1="0" y1="0" x2="1" y2="1">
      <stop offset="0%" stop-color="#0d1520"/>
      <stop offset="100%" stop-color="#0a0f1a"/>
    </linearGradient>
    <linearGradient id="hb1" x1="0" y1="0" x2="0" y2="1">
      <stop offset="0%" stop-color="#1a8c7a"/>
      <stop offset="100%" stop-color="#0d4a5c"/>
    </linearGradient>
    <linearGradient id="hb2" x1="0" y1="0" x2="0" y2="1">
      <stop offset="0%" stop-color="#1eb89a"/>
      <stop offset="100%" stop-color="#0d5a6e"/>
    </linearGradient>
    <linearGradient id="hb3" x1="0" y1="0" x2="0" y2="1">
      <stop offset="0%" stop-color="#20d4b0"/>
      <stop offset="100%" stop-color="#0e6880"/>
    </linearGradient>
    <linearGradient id="hb4" x1="0" y1="0" x2="0" y2="1">
      <stop offset="0%" stop-color="#00e5c0"/>
      <stop offset="100%" stop-color="#0f7a90"/>
    </linearGradient>
    <linearGradient id="hb5" x1="0" y1="0" x2="0" y2="1">
      <stop offset="0%" stop-color="#00f0cc"/>
      <stop offset="100%" stop-color="#10889e"/>
    </linearGradient>
    <radialGradient id="hglow" cx="60%" cy="30%" r="55%">
      <stop offset="0%" stop-color="#0d4a3a" stop-opacity="0.8"/>
      <stop offset="100%" stop-color="#0a0f1a" stop-opacity="0"/>
    </radialGradient>
  </defs>
  <rect width="52" height="52" rx="12" fill="url(#hbg)"/>
  <ellipse cx="32" cy="18" rx="22" ry="18" fill="url(#hglow)"/>
  <rect x="5"  y="30" width="7" height="17" rx="2" fill="#0f1e2e" opacity="0.9"/>
  <rect x="14" y="25" width="7" height="22" rx="2" fill="#0f1e2e" opacity="0.9"/>
  <rect x="23" y="20" width="7" height="27" rx="2" fill="#0f1e2e" opacity="0.9"/>
  <rect x="32" y="14" width="7" height="33" rx="2" fill="#0f1e2e" opacity="0.9"/>
  <rect x="41" y="8"  width="7" height="39" rx="2" fill="#0f1e2e" opacity="0.9"/>
  <rect x="5"  y="34" width="7" height="13" rx="2" fill="url(#hb1)"/>
  <rect x="14" y="29" width="7" height="18" rx="2" fill="url(#hb2)"/>
  <rect x="23" y="23" width="7" height="24" rx="2" fill="url(#hb3)"/>
  <rect x="32" y="17" width="7" height="30" rx="2" fill="url(#hb4)"/>
  <rect x="41" y="11" width="7" height="36" rx="2" fill="url(#hb5)"/>
  <line x1="4" y1="47" x2="49" y2="47" stroke="rgba(255,255,255,0.12)" stroke-width="0.8" stroke-linecap="round"/>
  <polyline points="8.5,29 17.5,24 26.5,19 35.5,13 44.5,8" fill="none" stroke="#4fa8ff" stroke-width="1.2" stroke-linecap="round" stroke-linejoin="round"/>
  <circle cx="8.5"  cy="29" r="1.6" fill="#0d1520" stroke="#00c896" stroke-width="1.2"/>
  <circle cx="17.5" cy="24" r="1.6" fill="#0d1520" stroke="#4fa8ff" stroke-width="1.2"/>
  <circle cx="26.5" cy="19" r="1.6" fill="#0d1520" stroke="#4fa8ff" stroke-width="1.2"/>
  <circle cx="35.5" cy="13" r="1.6" fill="#0d1520" stroke="#7b61ff" stroke-width="1.2"/>
  <circle cx="44.5" cy="8" r="2.8" fill="#00e5c0" stroke="#0d1520" stroke-width="1"/>
  <polyline points="40,5 44.5,8 40.5,11.5" fill="none" stroke="#00e5c0" stroke-width="1.3" stroke-linecap="round" stroke-linejoin="round"/>
</svg>
